# xmcd CD database file
#
# Track frame offsets:
#	192
#	17557
#	35427
#	54500
#	76220
#	94817
#	119430
#	136545
#	156450
#	176127
#	194342
#
# Disc length: 2894 seconds
#
# Revision: 2
# Processed by: cddbd v1.5.2PL0 Copyright (c) Steve Scherf et al.
# Submitted via: CDex 1.51
#
DISCID=8a0b4c0b
DTITLE=Gillespie Dana - Where Blue Begins
DYEAR=1991
DGENRE=Blues
TTITLE0=Where Blue Begins
TTITLE1=I Wanna Make Love To You
TTITLE2=A Man Size Job
TTITLE3=Up Your Sleeve
TTITLE4=Tall Dark Stranger
TTITLE5=I Walk On Gilded Splinters
TTITLE6=Three Handed Man
TTITLE7=Magnet For Love
TTITLE8=Some One On My Mind
TTITLE9=Ride In Your Automobile
TTITLE10=File Me Under Fool
EXTD=YEAR: 1991
EXTT0=
EXTT1=
EXTT2=
EXTT3=
EXTT4=
EXTT5=
EXTT6=
EXTT7=
EXTT8=
EXTT9=
EXTT10=
PLAYORDER=
